:SAMPLES-PER-SECOND 30
:FULLY-SPECIFIED
:DEGREES
594
root  -22.6672 34.8192 -5.18009 -172.164 47.9809 -178.928
RightUpLeg  -10.9618 -7.09163 1.0813
RightLeg  7.1673 8.09452 0.493338
RightFoot  6.71396 -0.0230435 1.083
RightToes  -28.2574 -0.132107 -0.239674
Spine  0.0716207 2.33983 -0.313299
Spine1  0.0822739 4.86997 0.0478638
HEad  -68.576 -11.8161 3.65919
LeftShoulder1  -1.94126e-019 -3.10601e-018 -2.51263e-017
LeftArm  -6.14449 18.8715 -82.4618
LeftForeArm  39.085 -11.3172 -1.98354
LeftHand  -0.418135 -1.8282 6.90783
RightShoulder  -4.96962e-017 0 -2.36833e-017
RightArm  1.00487 -1.235 81.8402
RightForeArm  41.3126 50.9789 10.5961
RightHand  0.154516 -6.20694 -22.9316
LeftUpLeg  -11.9399 -3.24902 1.24532
LeftLeg  13.2678 12.8956 2.15667
LeftFoot  3.26189 -0.0106409 0.941551
LeftToes  -19.9354 1.34695e-006 1.12385e-007
595
root  -22.6651 34.8122 -5.156 -171.275 46.2924 -178.586
RightUpLeg  -11.2468 -7.89218 1.48434
RightLeg  6.76257 7.29478 0.393302
RightFoot  6.74432 -0.0162026 0.992157
RightToes  -28.362 -0.133875 -0.241517
Spine  -0.00373521 2.01825 -0.14059
Spine1  -0.0530575 4.20359 0.405123
HEad  -70.0172 -12.0956 4.15582
LeftShoulder1  -1.94126e-019 -3.10601e-018 -2.51263e-017
LeftArm  -6.64513 19.9817 -82.0049
LeftForeArm  34.5823 -14.1489 -2.42738
LeftHand  -0.402432 -1.50081 6.94514
RightShoulder  -4.96962e-017 0 -2.36833e-017
RightArm  0.971522 -4.86741 80.5303
RightForeArm  46.3931 55.0937 12.1571
RightHand  -0.107206 -4.95484 -27.4984
LeftUpLeg  -13.3182 -3.97336 1.67791
LeftLeg  14.1993 11.961 2.20144
LeftFoot  2.98663 -0.00305859 0.824866
LeftToes  -20.1363 1.34695e-006 1.12385e-007
596
root  -22.6283 34.8216 -5.19345 -171.177 44.8379 -178.715
RightUpLeg  -10.9231 -8.62749 1.45066
RightLeg  6.21448 6.66734 0.295836
RightFoot  6.67864 -0.0100644 0.910702
RightToes  -28.2602 -0.136418 -0.244166
Spine  -0.0337736 1.52435 -0.0605557
Spine1  -0.111061 3.20083 0.573052
HEad  -70.1524 -11.7962 3.96165
LeftShoulder1  -1.94126e-019 -3.10601e-018 -2.51263e-017
LeftArm  -6.43256 21.2095 -81.5224
LeftForeArm  29.9629 -16.379 -2.72951
LeftHand  -0.386214 -0.914413 7.24189
RightShoulder  -4.96962e-017 0 -2.36833e-017
RightArm  0.969358 -5.95662 79.8704
RightForeArm  49.9435 57.0014 12.9089
RightHand  -0.504406 -3.58542 -31.8631
LeftUpLeg  -13.6282 -4.72524 1.70855
LeftLeg  14.137 11.3123 2.07104
LeftFoot  3.13966 -0.00278609 0.818157
LeftToes  -20.5632 1.34695e-006 1.12385e-007
597
root  -22.5642 34.8363 -5.22245 -171.064 44.2635 -178.761
RightUpLeg  -10.6234 -9.01119 1.49072
RightLeg  5.65913 6.4776 0.224676
RightFoot  6.72639 -0.00835741 0.891881
RightToes  -28.4548 -0.139226 -0.24709
Spine  -0.185099 1.12764 0.0468038
Spine1  -0.406392 2.38819 0.803271
HEad  -68.7758 -11.1792 3.02093
LeftShoulder1  -1.94126e-019 -3.10601e-018 -2.51263e-017
LeftArm  -6.69591 22.1397 -81.457
LeftForeArm  28.5203 -16.9578 -2.80688
LeftHand  -0.384052 -0.653366 7.49041
RightShoulder  -4.96962e-017 0 -2.36833e-017
RightArm  1.57926 -4.88135 79.7236
RightForeArm  52.965 58.3123 13.4352
RightHand  -0.634529 -3.13555 -32.0696
LeftUpLeg  -13.4605 -4.89446 1.76037
LeftLeg  13.5394 10.9468 1.88803
LeftFoot  3.29418 -0.00352914 0.823775
LeftToes  -20.7794 1.34695e-006 1.12385e-007
598
root  -22.4892 34.8545 -5.24642 -171.009 44.6534 -178.786
RightUpLeg  -10.4242 -8.88054 1.50104
RightLeg  5.2754 6.70247 0.187574
RightFoot  6.75858 -0.00990208 0.918839
RightToes  -29.1457 -0.141789 -0.249758
Spine  -0.323563 1.03511 0.0782476
Spine1  -0.676527 2.18852 0.87908
HEad  -66.8271 -10.7142 2.41799
LeftShoulder1  -1.94126e-019 -3.10601e-018 -2.51263e-017
LeftArm  -7.06517 22.183 -81.6026
LeftForeArm  30.059 -15.9629 -2.67218
LeftHand  -0.386472 -0.722968 7.45718
RightShoulder  -4.96962e-017 0 -2.36833e-017
RightArm  1.77714 -2.90486 80.0869
RightForeArm  50.5887 58.5631 13.8007
RightHand  -0.572179 -3.10344 -28.5691
LeftUpLeg  -12.989 -4.78346 1.77499
LeftLeg  12.8151 11.2221 1.79028
LeftFoot  3.44297 -0.00690449 0.867034
LeftToes  -21.0826 1.34695e-006 1.12385e-007
599
root  -22.4163 34.8628 -5.27413 -170.999 45.53 -178.807
RightUpLeg  -10.4012 -8.6039 1.48189
RightLeg  5.2451 7.23811 0.198659
RightFoot  6.72914 -0.0135509 0.975173
RightToes  -29.953 -0.143597 -0.251639
Spine  -0.377579 1.19809 0.0568491
Spine1  -0.779208 2.50695 0.842109
HEad  -65.6364 -10.4829 2.35159
LeftShoulder1  -1.94126e-019 -3.10601e-018 -2.51263e-017
LeftArm  -7.31604 21.5281 -81.8506
LeftForeArm  32.6788 -14.3662 -2.45077
LeftHand  -0.401008 -1.10611 7.30894
RightShoulder  -4.96962e-017 0 -2.36833e-017
RightArm  1.15939 -1.19136 80.5068
RightForeArm  47.8223 59.5666 14.7114
RightHand  -0.327517 -3.69788 -21.9228
LeftUpLeg  -12.4809 -4.50755 1.73763
LeftLeg  12.2756 11.8065 1.76937
LeftFoot  3.47703 -0.0104081 0.909198
LeftToes  -21.212 1.34695e-006 1.12385e-007
600
root  -22.3508 34.8604 -5.31116 -171.002 46.4262 -178.836
RightUpLeg  -10.4577 -8.28252 1.43689
RightLeg  5.37394 7.81883 0.232064
RightFoot  6.66362 -0.0172822 1.032
RightToes  -30.2591 -0.144349 -0.252419
Spine  -0.350191 1.41143 0.0263652
Spine1  -0.721107 2.92975 0.783549
HEad  -65.4013 -10.116 2.43844
LeftShoulder1  -1.94126e-019 -3.10601e-018 -2.51263e-017
LeftArm  -7.83451 20.7516 -82.168
LeftForeArm  34.715 -13.2748 -2.29157
LeftHand  -0.407933 -1.36297 7.17061
RightShoulder  -4.96962e-017 0 -2.36833e-017
RightArm  0.741895 -0.13146 80.7527
RightForeArm  45.9738 60.781 15.7602
RightHand  0.154528 -6.57045 -16.7354
LeftUpLeg  -12.1438 -4.11675 1.66053
LeftLeg  12.0882 12.2996 1.80145
LeftFoot  3.34973 -0.0115653 0.911986
LeftToes  -20.9555 1.34695e-006 1.12385e-007
601
root  -22.2869 34.8564 -5.36652 -170.962 46.982 -178.837
RightUpLeg  -10.3969 -8.18061 1.42618
RightLeg  5.31154 8.28741 0.236885
RightFoot  6.67134 -0.0208477 1.08575
RightToes  -30.1483 -0.144415 -0.252483
Spine  -0.337842 1.53575 0.0156862
Spine1  -0.695462 3.17771 0.761815
HEad  -65.7793 -9.7203 2.619
LeftShoulder1  -1.94126e-019 -3.10601e-018 -2.51263e-017
LeftArm  -8.29712 20.4287 -82.4856
LeftForeArm  34.8699 -13.2432 -2.28662
LeftHand  -0.414773 -1.34864 7.30279
RightShoulder  -4.96962e-017 0 -2.36833e-017
RightArm  0.0906255 -0.0215382 80.9592
RightForeArm  39.5539 59.6448 15.5776
RightHand  0.392011 -8.88334 -13.8565
LeftUpLeg  -12.0066 -3.70646 1.59706
LeftLeg  12.1765 12.4545 1.8432
LeftFoot  3.11179 -0.00991122 0.868359
LeftToes  -20.5213 1.34695e-006 1.12385e-007
